<?xml version="1.0" encoding="iso-8859-1"?>
<!-- Uploaded to: SVG Repo, www.svgrepo.com, Generator: SVG Repo Mixer Tools -->
<svg height="800px" width="800px" version="1.1" id="Layer_1" xmlns="http://www.w3.org/2000/svg" xmlns:xlink="http://www.w3.org/1999/xlink" 
	 viewBox="0 0 511.999 511.999" xml:space="preserve">
<g>
	<path style="fill:#FFA233;" d="M217.545,147.142l-46.827,90.59c42.288-17.282,87.413-44.99,124.354-89.397l-10.556-20.428
		c-8.538,4.422-18.239,6.921-28.517,6.921c-10.278,0-19.972-2.5-28.51-6.921L217.545,147.142z"/>
	<path style="fill:#F9EACD;" d="M295.071,148.335c-36.942,44.407-82.067,72.115-124.354,89.397l-61.614,119.184
		c59.116-9.132,159.956-38.21,226.257-130.643L295.071,148.335z"/>
	<path style="fill:#FFA233;" d="M335.361,226.272c-66.301,92.431-167.143,121.51-226.257,130.643l-31.466,60.871
		c0,0,184.403,3.021,281.499-145.516L335.361,226.272z"/>
	<path style="fill:#F9EACD;" d="M359.137,272.27C262.04,420.807,77.637,417.786,77.637,417.786L57.758,456.24
		c27.816,16.055,61.726,27.847,98.484,35.331c35.248-3.83,166.632-25.27,245.735-136.424L359.137,272.27z"/>
	<path style="fill:#FFA233;" d="M401.979,355.148c-79.104,111.154-210.488,132.594-245.735,136.423
		c54.549,11.124,115.364,12.759,171.805,4.796c35.55-21.159,70.918-50.947,98.926-92.866L401.979,355.148z"/>
	<path style="fill:#F9EACD;" d="M426.974,403.503c-28.008,41.919-63.376,71.706-98.926,92.866
		c47.19-6.642,91.327-19.997,126.192-40.127L426.974,403.503z"/>
	<path style="fill:#7BA9D6;" d="M284.51,127.906c19.942-10.33,33.569-31.151,33.569-55.157c0-34.288-27.791-62.078-62.08-62.078
		c-34.283,0-62.078,27.791-62.078,62.078c0,24.006,13.63,44.831,33.569,55.157c3.25,1.683,6.671,3.089,10.23,4.184
		c5.777,1.779,11.917,2.737,18.28,2.737C266.276,134.828,275.977,132.328,284.51,127.906z"/>
</g>
<g>
	<path style="fill:#000003;" d="M463.715,451.342L304.57,143.481c-0.015-0.029-0.031-0.061-0.046-0.09l-6.027-11.659
		C316.8,118.509,328.746,97,328.746,72.745C328.746,32.633,296.111,0,255.998,0c-40.111,0-72.745,32.633-72.745,72.745
		c0,24.255,11.946,45.762,30.249,58.987l-5.427,10.501c-0.017,0.029-0.031,0.059-0.046,0.09L48.284,451.342
		c-2.619,5.063-0.794,11.288,4.142,14.136c51.207,29.566,125.467,46.521,203.735,46.521c24.834,0,49.27-1.723,72.699-5.017
		c0.479-0.035,0.955-0.105,1.427-0.206c49.648-7.126,94.7-21.33,129.286-41.298C464.509,462.63,466.334,456.405,463.715,451.342z
		 M116.112,366.585c48.167-8.077,115.796-28.023,174.651-76.927c4.531-3.764,5.152-10.49,1.388-15.022
		c-3.764-4.531-10.49-5.152-15.022-1.388c-49.036,40.746-104.83,60.108-148.581,69.283l49.878-96.486
		c45.017-18.959,83.394-45.469,114.333-78.957l54.009,104.48c-38.669,56.543-94.897,96.48-167.238,118.752
		c-34.954,10.761-65.676,14.639-83.976,16.03L116.112,366.585z M279.57,141.576l2.721,5.265
		c-24.17,27.635-53.605,50.482-87.834,68.187l31.356-60.655c4.938-3.444,9.755-6.999,14.388-10.63
		c5.089,1.134,10.372,1.748,15.797,1.748c6.792,0,13.363-0.956,19.605-2.704c0.514-0.144,1.029-0.285,1.541-0.439
		c0.396-0.121,0.787-0.247,1.179-0.375C278.739,141.839,279.157,141.718,279.57,141.576z M255.998,21.334
		c28.349,0,51.413,23.064,51.413,51.411c0,20.342-11.88,37.963-29.064,46.291c-0.057,0.029-0.112,0.057-0.169,0.083
		c-3.673,1.762-7.588,3.102-11.677,3.954c-0.085,0.017-0.169,0.035-0.252,0.054c-0.715,0.144-1.438,0.271-2.162,0.385
		c-0.217,0.035-0.435,0.067-0.654,0.098c-0.645,0.094-1.294,0.179-1.948,0.247c-0.337,0.035-0.68,0.061-1.019,0.09
		c-0.566,0.05-1.134,0.1-1.707,0.131c-0.542,0.027-1.089,0.035-1.637,0.048c-0.375,0.006-0.746,0.027-1.123,0.027
		c-0.375,0-0.748-0.021-1.121-0.027c-0.548-0.013-1.096-0.02-1.64-0.048c-0.571-0.031-1.137-0.081-1.702-0.131
		c-0.341-0.029-0.684-0.054-1.023-0.09c-0.652-0.068-1.3-0.155-1.944-0.247c-0.221-0.031-0.442-0.063-0.662-0.098
		c-0.721-0.114-1.44-0.242-2.153-0.385c-0.087-0.019-0.177-0.037-0.265-0.057c-4.081-0.852-7.988-2.188-11.655-3.946
		c-0.067-0.031-0.131-0.062-0.198-0.096c-17.178-8.332-29.049-25.947-29.049-46.286C204.587,44.398,227.651,21.334,255.998,21.334z
		 M72.016,451.888l12.161-23.522c15.118-0.463,54.034-3.096,100.919-17.435c34.804-10.646,66.768-25.577,95.005-44.381
		c30.347-20.209,56.401-44.955,77.671-73.691l31.7,61.319c-35.064,46.833-80.496,75.656-112.977,91.74
		c-5.279,2.612-7.44,9.013-4.825,14.292c1.86,3.758,5.64,5.936,9.567,5.936c1.589,0,3.204-0.356,4.726-1.11
		c32.688-16.186,77.733-44.551,114.301-89.98l14.298,27.66c-23.31,33.276-53.603,61.293-90.149,83.366
		c-21.972,3.006-44.905,4.582-68.253,4.582C186.022,490.666,119.647,476.61,72.016,451.888z M375.438,476.054
		c18.845-15.551,35.598-32.958,50.09-52.128l14.455,27.962C421.092,461.694,399.262,469.816,375.438,476.054z"/>
	<path style="fill:#000003;" d="M307.532,270.274c2.842,0,5.675-1.13,7.775-3.362l0.523-0.542c4.079-4.25,3.942-11.002-0.308-15.085
		c-4.25-4.079-11.002-3.942-15.082,0.308l-0.677,0.706c-4.035,4.291-3.827,11.045,0.467,15.078
		C302.288,269.316,304.913,270.274,307.532,270.274z"/>
	<path style="fill:#000003;" d="M246.994,458.38l-0.706,0.269c-5.517,2.063-8.319,8.208-6.256,13.728
		c1.602,4.288,5.669,6.936,9.992,6.936c1.242,0,2.505-0.219,3.734-0.68l0.796-0.302c5.511-2.088,8.284-8.246,6.197-13.755
		C258.66,459.067,252.502,456.293,246.994,458.38z"/>
</g>
</svg>