<?xml version="1.0" encoding="iso-8859-1"?>
<!-- Uploaded to: SVG Repo, www.svgrepo.com, Generator: SVG Repo Mixer Tools -->
<svg version="1.1" id="Layer_1" xmlns="http://www.w3.org/2000/svg" xmlns:xlink="http://www.w3.org/1999/xlink" 
	 viewBox="0 0 511.999 511.999" xml:space="preserve">
<path style="fill:#7D868C;" d="M408.264,116.837H103.732c-40.503,0-73.337,32.834-73.337,73.336v73.337H481.6v-73.337
	C481.6,149.671,448.766,116.837,408.264,116.837z"/>
<path style="opacity:0.2;enable-background:new    ;" d="M396.923,135.401H115.074c-37.487,0-67.875,30.388-67.875,67.874v67.874
	h417.598v-67.874C464.797,165.79,434.408,135.401,396.923,135.401z"/>
<path style="fill:#FFCE00;" d="M313.821,116.856c0-6.114-5.003-11.117-11.117-11.117h-93.417c-6.114,0-11.117,5.003-11.117,11.117
	v40.768c0,6.114,5.003,11.117,11.117,11.117h93.417c6.114,0,11.117-5.003,11.117-11.117V116.856z"/>
<rect x="198.175" y="140.572" style="opacity:0.2;enable-background:new    ;" width="115.65" height="28.166"/>
<rect x="161.155" y="116.832" style="opacity:0.2;enable-background:new    ;" width="16.275" height="34.464"/>
<rect x="126.967" y="116.832" style="opacity:0.2;enable-background:new    ;" width="16.275" height="34.464"/>
<rect x="334.571" y="116.832" style="opacity:0.2;enable-background:new    ;" width="16.275" height="34.464"/>
<rect x="368.748" y="116.832" style="opacity:0.2;enable-background:new    ;" width="16.275" height="34.464"/>
<path style="fill:#333E48;" d="M384.521,406.26c-34.056,0-66.072-13.264-90.151-37.348c-14.173-14.171-30.79-17.954-38.373-17.954
	c-7.582,0-24.196,3.782-38.374,17.96c-24.073,24.077-56.087,37.339-90.141,37.339c-0.002,0-0.003,0-0.005,0
	C57.188,406.259,0.001,349.074,0,278.78c0-70.293,57.186-127.479,127.478-127.479h257.044
	c70.292,0.002,127.477,57.188,127.477,127.48c0.001,34.049-13.259,66.064-37.336,90.142
	C450.586,392.999,418.573,406.26,384.521,406.26z"/>
<path style="fill:#009BDE;" d="M384.522,190.21L384.522,190.21H127.478l0,0c-48.915,0-88.569,39.654-88.569,88.569
	c0.001,48.915,39.654,88.57,88.569,88.569c24.46,0.001,46.605-9.914,62.634-25.946c22.399-22.397,49.54-29.354,65.886-29.354
	c16.347,0,43.491,6.959,65.891,29.353c16.028,16.033,38.174,25.949,62.634,25.949c48.916,0,88.57-39.654,88.569-88.569
	C473.09,229.864,433.439,190.212,384.522,190.21z"/>
<path style="opacity:0.2;enable-background:new    ;" d="M384.522,190.21H127.478c-48.915,0-88.569,39.654-88.569,88.569
	c0,2.435,0.126,4.84,0.318,7.225c3.68-45.531,41.77-81.34,88.251-81.34h257.044c46.483,0.001,84.569,35.812,88.25,81.345
	c0.193-2.386,0.318-4.79,0.318-7.227C473.09,229.864,433.439,190.212,384.522,190.21z"/>
<g>
	<path style="opacity:0.2;fill:#FFFFFF;enable-background:new    ;" d="M464.64,241.005c-15.733-20.886-40.735-34.395-68.898-34.395
		c-47.611,0-86.206,38.596-86.206,86.206c0,21.258,7.709,40.706,20.465,55.736c15.033,11.765,33.95,18.797,54.519,18.797
		c48.916,0,88.57-39.654,88.569-88.569C473.09,265.266,470.052,252.466,464.64,241.005z"/>
	<circle style="opacity:0.2;fill:#FFFFFF;enable-background:new    ;" cx="281.937" cy="238.114" r="25.939"/>
	<path style="opacity:0.2;fill:#FFFFFF;enable-background:new    ;" d="M76.487,206.382c-20.666,14.583-34.808,37.776-37.199,64.371
		c7.179,8.102,17.656,13.214,29.333,13.214c21.644,0,39.188-17.544,39.188-39.188C107.809,225.83,94.36,210.024,76.487,206.382z"/>
</g>
</svg>